<?xml version="1.0" encoding="UTF-8"?><svg id="Layer_1" xmlns="http://www.w3.org/2000/svg" width="80" height="47" viewBox="0 0 80 47"><path d="M70.12,11.95l7.42-2.51.02-9.45-15.52,5.24h0s8.08,6.71,8.08,6.71Z" fill="#fff"/><path d="M57.13,6.9l-7.56-6.31.02,8.86,7.54-2.55Z" fill="#dde4f2"/><path d="M62.04,5.24v9.44l17.96,14.97v-9.45l-17.96-14.96Z" fill="#dde4f2"/><path d="M52.21,23.53v22.2h-6.1v-8.72h-10.95v8.72h-6.1v-22.2h6.1v8.38h10.95v-8.38h6.1Z" fill="#dde4f2"/><path d="M63.11,36.98h12.66v-5.01h-12.66v-3.31h10.23l-6.2-5.13h-10.01v22.2h20.41v-5.13h-14.44v-3.62Z" fill="#dde4f2"/><path d="M18.85,38.51c-1.19,1.43-3.04,2.34-5.5,2.34-3.98,0-7.13-2.41-7.13-6.21s3.14-6.21,7.13-6.21c2.31,0,4.08.8,5.27,2.08l6.02-2.01c-2.11-3.33-6.02-5.32-11.29-5.32-7.78,0-13.35,4.86-13.35,11.47s5.57,11.47,13.35,11.47c5.41,0,9.39-2.11,11.46-5.6l-5.95-1.99h0Z" fill="#dde4f2"/><path d="M57.13,16.34l-15.36,5.19.02-9.45,15.33-5.19v9.44Z" fill="#fff"/></svg>