<?xml version="1.0" encoding="UTF-8"?><svg id="Layer_1" xmlns="http://www.w3.org/2000/svg" width="123" height="72" viewBox="0 0 123 72"><polygon points="107.81 18.83 119.22 14.95 119.25 .33 95.39 8.44 95.39 8.44 107.81 18.83" fill="#3d89be"/><polygon points="95.39 8.44 95.39 23.04 123 46.21 123 31.59 95.39 8.44" fill="#20315d"/><path d="M80.28,36.75v34.35h-9.38v-13.49h-16.84v13.49h-9.38v-34.35h9.38v12.97h16.84v-12.97h9.38Z" fill="#20315d"/><polygon points="97.02 57.56 116.49 57.56 116.49 49.81 97.02 49.81 97.02 44.69 112.75 44.69 103.22 36.75 87.84 36.75 87.84 71.1 119.22 71.1 119.22 63.16 97.02 63.16 97.02 57.56" fill="#20315d"/><path d="M28.99,59.92c-1.83,2.21-4.67,3.62-8.46,3.62-6.12,0-10.96-3.73-10.96-9.62s4.83-9.62,10.96-9.62c3.55,0,6.27,1.24,8.11,3.22l9.25-3.12c-3.25-5.15-9.26-8.24-17.36-8.24-11.96,0-20.53,7.51-20.53,17.75s8.56,17.75,20.53,17.75c8.32,0,14.44-3.26,17.62-8.67l-9.16-3.08Z" fill="#20315d"/><polygon points="87.83 11 76.22 1.23 76.25 14.95 87.83 11" fill="#399356"/><polygon points="87.83 25.62 64.23 33.65 64.26 19.03 87.83 11 87.83 25.62" fill="#7ac19c"/></svg>