<?xml version="1.0" encoding="UTF-8"?><svg id="Layer_1" xmlns="http://www.w3.org/2000/svg" width="121" height="50" viewBox="0 0 121 50"><polygon points="75.12 13.03 83.07 10.33 83.09 .14 66.47 5.79 66.47 5.8 75.12 13.03" fill="#3d89be"/><polygon points="66.47 5.79 66.47 15.97 85.7 32.11 85.7 21.93 66.47 5.79" fill="#20315d"/><path d="M92.72,35.25c-.39,0-.73-.09-1.01-.26-.28-.17-.5-.42-.66-.73s-.23-.67-.23-1.08.08-.77.23-1.08c.16-.31.38-.55.66-.73.28-.18.62-.26,1.01-.26.46,0,.83.11,1.12.33s.47.52.55.92h-.53c-.06-.25-.19-.45-.37-.6-.19-.15-.44-.23-.76-.23-.29,0-.53.07-.75.2-.21.13-.38.32-.49.57-.12.25-.17.54-.17.88s.06.64.17.88c.12.25.28.43.49.57.21.13.46.2.75.2.32,0,.57-.07.76-.22s.31-.34.37-.59h.53c-.08.38-.26.69-.55.9-.29.22-.66.33-1.12.33Z" fill="#20315d"/><path d="M95.01,35.18v-4.11h.48v1.77c.1-.17.23-.31.41-.41s.37-.15.57-.15c.33,0,.59.1.79.31s.3.52.3.94v1.66h-.47v-1.61c0-.59-.24-.89-.71-.89-.25,0-.46.09-.62.27-.17.18-.25.43-.25.76v1.47h-.48Z" fill="#20315d"/><path d="M98.31,35.18v-2.83h.43l.04.54c.09-.19.22-.34.4-.45.18-.11.4-.17.66-.17v.5h-.13c-.17,0-.32.03-.46.09-.14.06-.25.16-.34.3s-.13.33-.13.58v1.43h-.48Z" fill="#20315d"/><path d="M100.64,31.72c-.1,0-.17-.03-.24-.09-.06-.06-.09-.14-.09-.24s.03-.17.09-.23c.06-.06.14-.09.24-.09s.17.03.23.09.1.14.1.23-.03.17-.1.24-.14.09-.23.09ZM100.4,35.18v-2.83h.48v2.83h-.48Z" fill="#20315d"/><path d="M102.76,35.25c-.34,0-.62-.09-.85-.26-.22-.17-.36-.4-.39-.7h.49c.03.15.11.28.24.39s.3.16.52.16c.2,0,.35-.04.45-.13s.14-.19.14-.31c0-.17-.06-.29-.19-.34-.12-.06-.3-.11-.52-.15-.15-.03-.3-.07-.46-.13-.15-.06-.28-.14-.38-.24s-.15-.24-.15-.41c0-.25.09-.45.28-.61.18-.16.44-.24.75-.24s.55.08.74.23c.19.15.3.36.33.64h-.47c-.02-.14-.08-.26-.19-.34-.1-.08-.24-.12-.42-.12s-.3.04-.4.11c-.09.07-.14.17-.14.29s.06.2.18.27.28.12.49.17c.18.04.34.08.5.14.16.06.29.14.39.25.1.11.15.27.15.47,0,.25-.09.47-.29.63s-.46.25-.8.25Z" fill="#20315d"/><path d="M105.59,35.18c-.26,0-.46-.06-.61-.19-.15-.13-.22-.35-.22-.68v-1.56h-.49v-.41h.49l.06-.68h.42v.68h.83v.41h-.83v1.56c0,.18.04.3.11.36.07.06.2.09.38.09h.3v.41h-.43Z" fill="#20315d"/><path d="M107.83,35.25c-.27,0-.51-.06-.72-.19s-.37-.3-.49-.52c-.12-.22-.18-.48-.18-.78s.06-.56.18-.78c.12-.22.28-.4.49-.52s.46-.19.73-.19.51.06.71.19c.2.12.35.29.46.49s.16.42.16.65c0,.04,0,.08,0,.13s0,.09,0,.14h-2.26c.01.22.06.4.15.54s.2.25.34.32c.13.07.28.11.43.11.2,0,.36-.05.5-.14.13-.09.23-.22.29-.37h.47c-.08.26-.22.48-.44.65-.22.17-.49.26-.83.26ZM107.83,32.68c-.23,0-.43.07-.61.21s-.28.34-.31.61h1.78c-.01-.26-.1-.45-.26-.6-.16-.14-.37-.22-.61-.22Z" fill="#20315d"/><path d="M109.82,35.18v-4.11h.48v4.11h-.48Z" fill="#20315d"/><path d="M111.36,31.72c-.1,0-.17-.03-.24-.09s-.09-.14-.09-.24.03-.17.09-.23.14-.09.24-.09.17.03.23.09c.06.06.1.14.1.23s-.03.17-.1.24c-.06.06-.14.09-.23.09ZM111.12,35.18v-2.83h.48v2.83h-.48Z" fill="#20315d"/><path d="M111.83,36.43v-.41h.22c.14,0,.24-.03.31-.09.06-.06.09-.16.09-.3v-3.29h.48v3.3c0,.27-.07.47-.21.6-.14.13-.34.19-.6.19h-.3ZM112.7,31.72c-.09,0-.17-.03-.23-.09-.06-.06-.1-.14-.1-.24s.03-.17.1-.23c.06-.06.14-.09.23-.09s.17.03.23.09c.06.06.09.14.09.23s-.03.17-.09.24c-.06.06-.14.09-.23.09Z" fill="#20315d"/><path d="M113.75,35.18v-4.11h.48v2.47l1.16-1.19h.59l-1.26,1.28,1.42,1.55h-.61l-1.3-1.47v1.47h-.48Z" fill="#20315d"/><path d="M117.68,35.25c-.27,0-.51-.06-.72-.19s-.37-.3-.49-.52c-.12-.22-.18-.48-.18-.78s.06-.56.18-.78c.12-.22.28-.4.49-.52s.46-.19.73-.19.51.06.71.19c.2.12.35.29.46.49s.16.42.16.65c0,.04,0,.08,0,.13s0,.09,0,.14h-2.26c.01.22.06.4.15.54s.2.25.34.32c.13.07.28.11.43.11.2,0,.36-.05.5-.14.13-.09.23-.22.29-.37h.47c-.08.26-.22.48-.44.65-.22.17-.49.26-.83.26ZM117.68,32.68c-.23,0-.43.07-.61.21s-.28.34-.31.61h1.78c-.01-.26-.1-.45-.26-.6-.16-.14-.37-.22-.61-.22Z" fill="#20315d"/><path d="M90.97,42.21v-4h.48v1.77h2.07v-1.77h.48v4h-.48v-1.84h-2.07v1.84h-.48Z" fill="#20315d"/><path d="M96.12,42.28c-.27,0-.51-.06-.72-.18-.21-.12-.38-.29-.51-.52-.12-.22-.19-.48-.19-.79s.06-.56.19-.79c.13-.22.3-.4.51-.52.22-.12.46-.18.72-.18s.51.06.72.18c.21.12.38.29.51.52s.19.48.19.79-.06.56-.19.79-.3.4-.51.52c-.22.12-.46.18-.72.18ZM96.12,41.87c.16,0,.32-.04.46-.12.14-.08.25-.2.34-.36.09-.16.13-.36.13-.59s-.04-.43-.13-.59-.2-.28-.34-.36-.29-.12-.45-.12-.32.04-.46.12-.26.2-.34.36-.13.36-.13.59.04.43.13.59.2.28.34.36c.14.08.29.12.45.12Z" fill="#20315d"/><path d="M99.29,41.32c-.16,0-.31-.02-.44-.06l-.29.27s.09.06.16.08.15.04.27.06c.12.02.28.04.5.05.38.03.65.11.82.26.16.15.25.34.25.58,0,.16-.04.32-.13.47-.09.15-.23.27-.41.37-.18.09-.42.14-.71.14-.25,0-.48-.03-.68-.1s-.35-.17-.46-.3c-.11-.14-.17-.31-.17-.51,0-.11.03-.22.09-.35.06-.12.16-.24.32-.35-.08-.03-.16-.07-.21-.11-.06-.04-.11-.08-.16-.13v-.13l.49-.48c-.22-.19-.34-.44-.34-.75,0-.19.04-.36.13-.51s.22-.27.38-.36c.17-.09.37-.13.61-.13.16,0,.31.02.45.07h1.05v.36l-.53.02c.11.16.17.34.17.55,0,.19-.04.36-.13.51s-.22.27-.38.36-.37.13-.61.13ZM98.46,42.58c0,.19.08.33.24.43.16.09.36.14.6.14s.43-.05.57-.15c.14-.1.21-.24.21-.41,0-.12-.05-.23-.15-.32s-.28-.14-.55-.16c-.21-.02-.39-.03-.54-.06-.16.08-.26.17-.31.27-.05.1-.07.18-.07.26ZM99.29,40.93c.2,0,.36-.05.48-.16.12-.1.18-.26.18-.45s-.06-.34-.18-.45c-.12-.1-.28-.16-.48-.16s-.37.05-.49.16-.18.25-.18.45.06.35.18.45.28.16.49.16Z" fill="#20315d"/><path d="M102.5,42.28c-.27,0-.51-.06-.72-.19-.21-.12-.37-.3-.49-.52-.12-.22-.18-.48-.18-.78s.06-.56.18-.78c.12-.22.28-.4.49-.52.21-.12.46-.19.73-.19s.51.06.71.19.35.29.46.49c.11.2.16.42.16.65,0,.04,0,.08,0,.13s0,.09,0,.14h-2.26c.01.22.06.4.15.54.09.14.2.25.34.32.14.07.28.11.43.11.2,0,.36-.05.5-.14s.23-.22.29-.37h.47c-.08.26-.22.48-.44.65-.22.17-.49.26-.83.26ZM102.5,39.71c-.23,0-.43.07-.61.21s-.28.34-.31.61h1.78c-.01-.26-.1-.45-.26-.6-.16-.14-.37-.22-.61-.22Z" fill="#20315d"/><path d="M105.54,42.28c-.34,0-.62-.09-.85-.26-.22-.17-.36-.4-.39-.7h.49c.03.15.11.28.24.39.13.11.3.16.52.16.2,0,.35-.04.45-.13.1-.09.14-.19.14-.31,0-.17-.06-.29-.19-.34-.12-.06-.3-.11-.52-.15-.15-.03-.3-.07-.46-.13-.15-.06-.28-.14-.38-.24-.1-.1-.15-.24-.15-.41,0-.25.09-.45.28-.61.18-.16.43-.24.75-.24s.55.08.74.23c.19.15.3.36.33.64h-.47c-.02-.14-.08-.26-.19-.34-.1-.08-.24-.12-.42-.12s-.3.04-.4.11c-.09.07-.14.17-.14.29s.06.2.18.27.28.12.49.17c.18.04.34.08.5.14.16.06.29.14.39.25.1.11.15.27.15.47,0,.25-.09.47-.29.63-.2.17-.46.25-.8.25Z" fill="#20315d"/><path d="M108.57,42.28c-.27,0-.51-.06-.73-.19-.22-.12-.38-.3-.51-.52-.12-.22-.19-.48-.19-.78s.06-.56.19-.78c.12-.22.29-.4.51-.52.22-.12.46-.19.73-.19.34,0,.62.09.85.26.23.18.38.41.44.7h-.49c-.04-.18-.13-.31-.28-.41-.15-.1-.32-.15-.52-.15-.16,0-.31.04-.45.12s-.26.2-.34.36-.13.36-.13.59.04.43.13.59.2.28.34.36c.14.08.29.12.45.12.2,0,.37-.05.52-.15.15-.1.24-.24.28-.41h.49c-.06.29-.2.52-.43.7-.23.18-.52.27-.85.27Z" fill="#20315d"/><path d="M110.5,42.21v-4.11h.48v1.77c.1-.17.23-.31.41-.41s.37-.15.57-.15c.33,0,.59.1.79.31s.3.52.3.94v1.66h-.47v-1.61c0-.59-.24-.89-.71-.89-.25,0-.46.09-.62.27-.17.18-.25.43-.25.76v1.47h-.48Z" fill="#20315d"/><path d="M115.07,42.28c-.27,0-.51-.06-.72-.18-.21-.12-.38-.29-.51-.52-.12-.22-.19-.48-.19-.79s.06-.56.19-.79c.13-.22.3-.4.51-.52.22-.12.46-.18.72-.18s.51.06.72.18c.21.12.38.29.51.52s.19.48.19.79-.06.56-.19.79-.3.4-.51.52c-.22.12-.46.18-.72.18ZM115.07,41.87c.16,0,.32-.04.46-.12.14-.08.25-.2.34-.36.09-.16.13-.36.13-.59s-.04-.43-.13-.59-.2-.28-.34-.36-.29-.12-.45-.12-.32.04-.46.12-.26.2-.34.36-.13.36-.13.59.04.43.13.59.2.28.34.36c.14.08.29.12.45.12Z" fill="#20315d"/><path d="M118.43,42.28c-.27,0-.51-.06-.72-.18-.21-.12-.38-.29-.51-.52-.12-.22-.19-.48-.19-.79s.06-.56.19-.79c.13-.22.3-.4.51-.52.22-.12.46-.18.72-.18s.51.06.72.18c.21.12.38.29.51.52s.19.48.19.79-.06.56-.19.79c-.13.22-.3.4-.51.52-.22.12-.46.18-.72.18ZM118.43,41.87c.16,0,.32-.04.46-.12.14-.08.25-.2.34-.36.09-.16.13-.36.13-.59s-.04-.43-.13-.59-.2-.28-.34-.36-.29-.12-.45-.12-.32.04-.46.12-.26.2-.34.36-.13.36-.13.59.04.43.13.59.2.28.34.36c.14.08.29.12.45.12Z" fill="#20315d"/><path d="M120.52,42.21v-4.11h.48v4.11h-.48Z" fill="#20315d"/><path d="M90.97,49.46v-4h2.47v.39h-1.99v1.39h1.82v.39h-1.82v1.43h1.99v.39h-2.47Z" fill="#20315d"/><path d="M95.31,49.53c-.28,0-.53-.06-.74-.19s-.38-.31-.49-.53c-.12-.22-.17-.48-.17-.77s.06-.54.18-.76c.12-.22.28-.4.49-.53.21-.13.46-.19.74-.19.23,0,.44.05.62.14.18.1.32.23.42.4v-1.75h.48v4.11h-.43l-.05-.47c-.09.14-.22.26-.39.37-.17.11-.39.17-.65.17ZM95.36,49.11c.19,0,.36-.04.51-.13.15-.09.26-.21.34-.37.08-.16.12-.35.12-.56s-.04-.4-.12-.56c-.08-.16-.2-.28-.34-.37-.15-.09-.32-.13-.51-.13s-.35.04-.5.13c-.15.09-.26.21-.34.37-.08.16-.12.35-.12.56s.04.4.12.56c.08.16.2.28.34.37.15.09.31.13.5.13Z" fill="#20315d"/><path d="M98.89,49.53c-.27,0-.51-.06-.72-.19s-.37-.3-.49-.52c-.12-.22-.18-.48-.18-.78s.06-.56.18-.78c.12-.22.28-.4.49-.52s.46-.19.73-.19.51.06.71.19c.2.12.35.29.46.49s.16.42.16.65c0,.04,0,.08,0,.13s0,.09,0,.14h-2.26c.01.22.06.4.15.54s.2.25.34.32c.13.07.28.11.43.11.2,0,.36-.05.5-.14.13-.09.23-.22.29-.37h.47c-.08.26-.22.48-.44.65-.22.17-.49.26-.83.26ZM98.89,46.96c-.23,0-.43.07-.61.21s-.28.34-.31.61h1.78c-.01-.26-.1-.45-.26-.6-.16-.14-.37-.22-.61-.22Z" fill="#20315d"/><path d="M55.94,25.52v23.94h-6.53v-9.4h-11.73v9.4h-6.53v-23.94h6.53v9.03h11.73v-9.03h6.53Z" fill="#20315d"/><polygon points="67.6 40.02 81.17 40.02 81.17 34.62 67.6 34.62 67.6 31.05 78.56 31.05 71.92 25.52 61.2 25.52 61.2 49.46 83.07 49.46 83.07 43.92 67.6 43.92 67.6 40.02" fill="#20315d"/><path d="M20.2,41.67c-1.28,1.54-3.26,2.52-5.9,2.52-4.27,0-7.63-2.6-7.63-6.7s3.37-6.7,7.63-6.7c2.48,0,4.37.87,5.65,2.24l6.45-2.17c-2.26-3.59-6.45-5.74-12.09-5.74-8.33,0-14.3,5.23-14.3,12.37s5.97,12.37,14.3,12.37c5.8,0,10.06-2.27,12.28-6.04l-6.38-2.15Z" fill="#20315d"/><polygon points="61.2 7.58 53.11 .78 53.13 10.33 61.2 7.58" fill="#399356"/><polygon points="61.2 17.77 44.75 23.36 44.77 13.18 61.2 7.58 61.2 17.77" fill="#7ac19c"/></svg>